HIERARCHY
ROOT locator2
{
  OFFSET 53.6172 30.1899 0.816905
  CHANNELS 6 Xposition Yposition Zposition Zrotation Xrotation Yrotation
  JOINT koshi
  {
    OFFSET 0 0 0
    CHANNELS 6 Xposition Yposition Zposition Zrotation Xrotation Yrotation
    JOINT sippo01
    {
      OFFSET 0 42.8363 -0.548134
      CHANNELS 6 Xposition Yposition Zposition Zrotation Xrotation Yrotation
      JOINT sippo02
      {
        OFFSET 0 44.0461 -3.28882
        CHANNELS 6 Xposition Yposition Zposition Zrotation Xrotation Yrotation
        JOINT sippo03
        {
          OFFSET 0 34.1929 -2.46662
          CHANNELS 6 Xposition Yposition Zposition Zrotation Xrotation Yrotation
          JOINT sippo04
          {
            OFFSET 0 30.0959 -1.75404
            CHANNELS 6 Xposition Yposition Zposition Zrotation Xrotation Yrotation
            JOINT sippo05
            {
              OFFSET 0 28.3637 -1.75404
              CHANNELS 6 Xposition Yposition Zposition Zrotation Xrotation Yrotation
              JOINT sippo06
              {
                OFFSET 0 31.6071 -3.2043
                CHANNELS 6 Xposition Yposition Zposition Zrotation Xrotation Yrotation
                End Site
                {
                  OFFSET 0 0 0
                }
              }
            }
          }
        }
      }
    }
    JOINT R_momo
    {
      OFFSET -27.891 13.5892 3.92723
      CHANNELS 6 Xposition Yposition Zposition Zrotation Xrotation Yrotation
      JOINT R_hiza
      {
        OFFSET 0 28.01 1.8232
        CHANNELS 6 Xposition Yposition Zposition Zrotation Xrotation Yrotation
        JOINT R_ashi
        {
          OFFSET 0 24.3992 -2.49174
          CHANNELS 6 Xposition Yposition Zposition Zrotation Xrotation Yrotation
          End Site
          {
            OFFSET 0 0 0
          }
        }
      }
    }
    JOINT L_momo
    {
      OFFSET 27.891 13.5892 3.92714
      CHANNELS 6 Xposition Yposition Zposition Zrotation Xrotation Yrotation
      JOINT L_hiza
      {
        OFFSET 0 28.0098 1.82319
        CHANNELS 6 Xposition Yposition Zposition Zrotation Xrotation Yrotation
        JOINT L_ashi
        {
          OFFSET 0 24.3992 -2.49171
          CHANNELS 6 Xposition Yposition Zposition Zrotation Xrotation Yrotation
          End Site
          {
            OFFSET 0 0 0
          }
        }
      }
    }
  }
  JOINT hara
  {
    OFFSET 0 2.15392 0
    CHANNELS 6 Xposition Yposition Zposition Zrotation Xrotation Yrotation
    JOINT mune
    {
      OFFSET 0 62.0609 0.472494
      CHANNELS 6 Xposition Yposition Zposition Zrotation Xrotation Yrotation
      JOINT R_kata
      {
        OFFSET 22.6695 9.65301 -5.3622
        CHANNELS 6 Xposition Yposition Zposition Zrotation Xrotation Yrotation
        JOINT R_hiji
        {
          OFFSET 0 25.813 1.69098
          CHANNELS 6 Xposition Yposition Zposition Zrotation Xrotation Yrotation
          JOINT R_te
          {
            OFFSET 0 28.5636 -0.966307
            CHANNELS 6 Xposition Yposition Zposition Zrotation Xrotation Yrotation
            End Site
            {
              OFFSET 0 0 0
            }
          }
        }
      }
      JOINT L_kata
      {
        OFFSET -22.6695 9.65298 -5.3622
        CHANNELS 6 Xposition Yposition Zposition Zrotation Xrotation Yrotation
        JOINT L_hiji
        {
          OFFSET 0 25.813 1.69102
          CHANNELS 6 Xposition Yposition Zposition Zrotation Xrotation Yrotation
          JOINT L_te
          {
            OFFSET 0 28.5636 -0.966295
            CHANNELS 6 Xposition Yposition Zposition Zrotation Xrotation Yrotation
            End Site
            {
              OFFSET 0 0 0
            }
          }
        }
      }
      JOINT kubi
      {
        OFFSET 0 23.1438 -0.944988
        CHANNELS 6 Xposition Yposition Zposition Zrotation Xrotation Yrotation
        JOINT atama
        {
          OFFSET 0 20.8625 4.12737
          CHANNELS 6 Xposition Yposition Zposition Zrotation Xrotation Yrotation
          JOINT ago
          {
            OFFSET 0 7.552 -7.58201
            CHANNELS 6 Xposition Yposition Zposition Zrotation Xrotation Yrotation
            End Site
            {
              OFFSET 0 0 0
            }
          }
        }
      }
    }
  }
}
MOTION
Frames:	5
Frame Time:	0.0333333
-34.7148 29.7575 -0.320485 -90 -3.50835e-015 -90 0 0 0 -173.437 0.688661 0.14352 -1.49012e-007 42.8363 -0.548138 0.487921 -9.70692 4.45121 -1.58302e-006 44.0461 -3.28883 2.12151 11.2632 -1.54325 -4.35317e-007 34.1929 -2.46662 2.35618 8.23603 3.94908 5.58181e-007 30.0959 -1.75404 6.23989 13.3396 -2.68205 1.59657e-005 28.3637 -1.75403 9.0478 1.12628 4.41902 8.78897e-006 31.6072 -3.2043 5.93218 1.03162 -10.5077 -27.891 13.5892 3.92723 124.268 -29.7866 -57.2976 3.98014e-006 28.01 1.8232 0.138542 -76.1056 2.62947 6.61902e-007 24.3992 -2.49173 -139.34 69.0129 -167.719 27.891 13.5892 3.92714 -157.601 -8.618 54.0795 -2.59559e-006 28.0098 1.82319 8.80127 -60.6328 -41.5685 -2.86544e-006 24.3992 -2.49172 -13.7939 15.2906 -19.7022 6.07685e-007 2.15392 -3.55271e-015 -3.29744 -3.48082 -2.05322 -4.44089e-016 62.0609 0.472498 -1.00178e-005 8.3415e-014 6.58344e-010 22.6695 9.65299 -5.36221 -75.0017 -7.42947 70.0067 -2.84217e-014 25.813 1.69097 179.414 -83.3948 -178.897 1.05301e-008 28.5636 -0.966307 16.8482 55.1601 -91.308 -22.6695 9.65298 -5.3622 119.59 5.84655 -50.478 0 25.813 1.69103 -179.762 -84.1606 177.76 3.71828e-006 28.5636 -0.966301 -44.5309 39.7926 96.307 -4.54747e-013 23.1438 -0.944992 -2.4552 5.13583 7.55139 -5.74622e-009 20.8625 4.12738 -0.545446 5.63957 7.66908 1.79316e-007 7.55203 -7.58201 -1.00997e-005 7.13783 1.25447e-006 
-31.4376 29.7169 -0.154298 -90 -3.50835e-015 -90 0 0 0 -174.166 0.00827161 0.166464 -1.49012e-007 42.8363 -0.548138 0.265543 -8.4953 4.79613 -1.54835e-006 44.0461 -3.28883 1.26271 11.6844 -0.751904 -3.55748e-007 34.1929 -2.46662 1.28522 9.37602 5.11931 6.2978e-007 30.0959 -1.75404 5.35936 13.808 -2.75434 1.633e-005 28.3637 -1.75403 8.2369 5.33949 3.80458 9.50411e-006 31.6072 -3.2043 5.45939 3.29106 -11.6127 -27.891 13.5892 3.92723 120.274 -31.5243 -60.595 4.02977e-006 28.01 1.8232 0.721857 -75.3409 0.247132 5.4228e-007 24.3992 -2.49173 -142.48 64.4341 -164.282 27.891 13.5892 3.92714 -157.185 -8.80993 52.7545 -2.66254e-006 28.0098 1.82319 8.47344 -55.9377 -47.0191 -3.26572e-006 24.3992 -2.49172 -10.9264 14.8413 -13.2541 6.07685e-007 2.15392 0 -3.80668 -2.50509 -2.31554 4.44089e-016 62.0609 0.472498 -3.82088e-011 1.18724e-013 7.7003e-010 22.6695 9.65299 -5.36221 -66.4303 -11.2694 68.9038 -7.10543e-015 25.813 1.69097 1.71741 -87.2738 3.24413 -6.10269e-009 28.5636 -0.966307 21.0157 54.6041 -93.2439 -22.6695 9.65298 -5.3622 124.712 5.52467 -47.1821 7.10543e-015 25.813 1.69103 -179.642 -85.7971 178.151 3.72996e-006 28.5636 -0.966301 -46.3071 34.3319 94.8719 -4.54747e-013 23.1438 -0.944992 -2.53437 4.93529 6.93182 -5.74622e-009 20.8625 4.12738 -0.298808 5.54031 7.40251 1.79599e-007 7.55203 -7.58201 -1.01021e-005 7.24864 1.27417e-006 
-28.128 29.9075 0.0135353 -90 -3.50835e-015 -90 0 0 0 -174.901 -0.699199 0.172511 -1.49012e-007 42.8363 -0.548138 0.0377914 -7.27144 5.15385 -1.51251e-006 44.0461 -3.28883 0.393935 12.107 0.0593214 -2.7722e-007 34.1929 -2.46662 0.197727 10.5244 5.87879 7.08605e-007 30.0959 -1.75404 4.46823 14.2786 -2.81247 1.66941e-005 28.3637 -1.75403 7.42824 8.44797 3.45741 1.01603e-005 31.6072 -3.2043 4.98793 5.57629 -12.6904 -27.891 13.5892 3.92723 114.076 -34.2449 -65.0898 4.1116e-006 28.01 1.8232 1.25196 -74.5672 -2.22037 3.03945e-007 24.3992 -2.49173 -144.5 59.7731 -161.805 27.891 13.5892 3.92714 -156.765 -9.00205 51.4195 -2.73063e-006 28.0098 1.82319 7.05305 -51.2776 -48.2772 -3.62055e-006 24.3992 -2.49172 -9.23674 14.2983 -12.7459 6.07685e-007 2.15392 0 -4.32068 -1.52075 -2.56248 -8.88178e-016 62.0609 0.472498 -7.95139e-016 2.5345e-015 2.87097e-011 22.6695 9.65299 -5.36221 -59.3898 -15.5482 68.9832 -1.42109e-014 25.813 1.69097 0.473856 -78.3309 1.83402 -1.86698e-008 28.5636 -0.966306 26.5793 53.5562 -97.2903 -22.6695 9.65298 -5.3622 129.882 4.85217 -43.7023 -7.10543e-015 25.813 1.69103 -178.16 -89.123 179.908 3.74668e-006 28.5636 -0.966301 -48.3531 26.7361 93.7809 -4.53859e-013 23.1438 -0.944992 -2.29516 4.73267 5.78251 -5.74622e-009 20.8625 4.12738 -0.31139 5.33881 6.67099 1.56795e-007 7.55203 -7.58201 -1.01021e-005 7.24864 1.27417e-006 
-22.657 30.0999 0.183014 -90 -3.50835e-015 -90 0 0 0 -175.642 -1.40453 0.158659 -1.49012e-007 42.8363 -0.548138 -0.452735 -6.03552 5.4973 -1.42886e-006 44.0461 -3.28883 -0.497199 12.5276 0.687346 -1.56213e-007 34.1929 -2.46662 -0.920703 11.6806 6.69388 8.15938e-007 30.0959 -1.75404 3.56357 14.7521 -3.77429 1.71586e-005 28.3637 -1.75403 6.61936 11.5443 3.20525 1.08617e-005 31.6072 -3.20429 4.49796 5.98042 -13.5889 -27.891 13.5892 3.92723 107.338 -35.9344 -70.2633 4.15564e-006 28.01 1.8232 1.58632 -73.7556 -4.90629 3.29483e-008 24.3992 -2.49173 -145.863 55.0007 -160.816 27.891 13.5892 3.92714 -154.171 -10.6979 47.4069 -3.03267e-006 28.0098 1.82319 6.44684 -50.8266 -43.8755 -3.44789e-006 24.3992 -2.49172 -7.96056 22.6556 -10.9667 6.07685e-007 2.15392 3.55271e-015 -3.9941 -0.52785 -2.87014 1.33227e-015 62.0609 0.472498 6.59966e-014 -3.07073e-013 1.00179e-005 22.6695 9.65299 -5.36221 -54.2171 -23.648 72.7193 1.42109e-014 25.813 1.69097 0.311404 -69.3748 -0.104203 5.13423e-009 28.5636 -0.966306 32.0218 49.0518 -105.333 -22.6695 9.65298 -5.3622 135.878 4.93679 -40.6647 0 25.813 1.69103 -0.542497 -86.8387 -2.19504 3.76214e-006 28.5636 -0.966301 -50.4312 18.233 90.3389 -4.53859e-013 23.1438 -0.944992 -1.64814 4.83706 4.34508 -5.74622e-009 20.8625 4.12738 -0.428622 5.13767 5.44455 1.14984e-007 7.55203 -7.58201 -1.00998e-005 7.14341 1.25546e-006 
-17.2923 30.2885 0.349201 -90 -3.50835e-015 -90 0 0 0 -176.369 -2.05633 0.12619 -1.49012e-007 42.8363 -0.548138 -0.932224 -4.82355 5.85443 -1.34686e-006 44.0461 -3.28883 -2.38558 12.5633 1.52757 1.7384e-008 34.1929 -2.46662 -3.31062 12.797 7.8218 9.91596e-007 30.0959 -1.75404 2.6734 15.2136 -4.70334 1.76409e-005 28.3637 -1.75404 5.71485 9.29159 3.91218 1.13948e-005 31.6072 -3.20429 4.01686 6.37681 -14.4639 -27.891 13.5892 3.92723 99.2829 -36.8167 -76.5341 4.16724e-006 28.01 1.8232 1.61813 -69.9164 -7.56603 -1.89916e-007 24.3992 -2.49173 -146.079 51.0905 -161.029 27.891 13.5892 3.92714 -151.581 -12.266 42.3078 -3.36733e-006 28.0098 1.82319 6.6173 -55.4449 -34.7938 -2.90851e-006 24.3992 -2.49172 -8.55497 37.3572 -13.6727 6.07685e-007 2.15392 0 -3.67523 0.444689 -3.18213 0 62.0609 0.472498 -8.12528e-011 7.20594e-016 1.62146e-010 22.6695 9.65299 -5.36221 -56.9609 -31.7992 76.4274 -7.10543e-015 25.813 1.69097 0.332995 -68.1197 -1.81756 4.0922e-008 28.5636 -0.966306 36.9812 44.4101 -112.427 -22.6695 9.65298 -5.3622 141.762 4.8739 -41.0162 0 25.813 1.69103 -0.299675 -83.8625 -1.51194 3.76843e-006 28.5636 -0.966301 -51.3644 10.928 87.7803 -4.54747e-013 23.1438 -0.944992 -0.545416 4.93933 2.28372 -5.74622e-009 20.8625 4.12738 -1.04495 5.03745 3.6873 3.92593e-008 7.55203 -7.58201 -1.00986e-005 7.08801 1.24561e-006 
